<mxfile host="app.diagrams.net" modified="2023-08-02T11:54:45.826Z" agent="Mozilla/5.0 (Windows NT 10.0; Win64; x64) AppleWebKit/537.36 (KHTML, like Gecko) Chrome/114.0.0.0 Safari/537.36" version="21.3.2" etag="mlzm72aYvRkyrtHvTOaD" type="github">
  <diagram name="‫עמוד-1‬" id="vkBoIcOJWMDEvB6HkHfv">
    <mxGraphModel>
      <root>
        <mxCell id="0" />
        <mxCell id="1" parent="0" />
      </root>
    </mxGraphModel>
  </diagram>
</mxfile>
